<svg xmlns="http://www.w3.org/2000/svg" viewBox="0 0 98.45 37.3"><defs><style>.cls-1{font-size:5.29px;font-family:Montserrat-Light, Montserrat;font-weight:300;}.cls-1,.cls-6,.cls-7{fill:#59251b;}.cls-2{letter-spacing:0em;}.cls-3{letter-spacing:0em;}.cls-4{letter-spacing:-0.01em;}.cls-5{fill:none;stroke:#59251b;stroke-miterlimit:10;stroke-width:0.45px;}.cls-6{fill-rule:evenodd;}</style></defs><g id="Layer_2" data-name="Layer 2"><g id="Layer_1-2" data-name="Layer 1"><text class="cls-1" transform="translate(15.81 32.54)">BUG BOUN<tspan class="cls-2" x="30.51" y="0">T</tspan><tspan class="cls-3" x="33.47" y="0">Y </tspan><tspan class="cls-4" x="38.13" y="0">P</tspan><tspan x="41.86" y="0">ROGRAM</tspan></text><rect class="cls-5" x="12.43" y="24.21" width="73.6" height="12.86"/><path class="cls-6" d="M5.49,8.91l6.81,6.93L19,9l5.52,5.62-6.41,6.53L16.49,19.5l4.81-4.9L19,12.3,12.3,19.15,5.49,12.22,3.26,14.5l4.88,5L6.49,21.11,0,14.5Z"/><path class="cls-6" d="M19.06,12.22,12.25,5.3,5.52,12.15,0,6.53,6.41,0,8.07,1.64,3.26,6.53,5.52,8.84,12.25,2l6.81,6.93L21.3,6.63l-4.88-5L18.07,0l6.48,6.6Z"/><path class="cls-6" d="M11.24,21V16.61h2.22V21Z"/><path class="cls-6" d="M11.24,4.53V.16h2.22V4.53Z"/><path class="cls-7" d="M32,5.15H29.83V16.3H32Z"/><path class="cls-7" d="M43.28,8.1a2.64,2.64,0,0,0-2.45,1.37A2.66,2.66,0,0,0,38.32,8.1a2.29,2.29,0,0,0-2.1,1L36,8.25H34V16.3h2.17V11.8c0-1.19.62-1.77,1.53-1.77s1.46.54,1.46,1.86V16.3h2.09V11.84c0-1.25.68-1.81,1.53-1.81s1.46.54,1.46,1.75v4.54h2.18v-5A3,3,0,0,0,43.28,8.1Z"/><path class="cls-7" d="M57.42,8.1A2.64,2.64,0,0,0,55,9.47,2.66,2.66,0,0,0,52.46,8.1a2.29,2.29,0,0,0-2.1,1l-.23-.88h-2V16.3h2.17V11.8c0-1.19.62-1.77,1.53-1.77s1.46.54,1.46,1.86V16.3h2.09V11.84c0-1.25.68-1.81,1.53-1.81s1.46.54,1.46,1.75v4.54h2.18v-5A3,3,0,0,0,57.42,8.1Z"/><path class="cls-7" d="M67.54,8.25v4.42c0,1.19-.56,1.9-1.63,1.92s-1.67-.58-1.67-1.83V8.25H62.18V13a3.09,3.09,0,0,0,3.25,3.42,2.4,2.4,0,0,0,2.07-1l.11.88h2v-8Z"/><path class="cls-7" d="M76,8.1a2.69,2.69,0,0,0-2.43,1.11l-.13-1h-2V16.3h2.17V12.05c0-1.31.62-2.1,1.76-2.1S77,10.64,77,12V16.3H79.2V11.52A3.09,3.09,0,0,0,76,8.1Z"/><path class="cls-7" d="M88.68,12.15a3.79,3.79,0,0,0-4-4.05,3.87,3.87,0,0,0-4,4.18,3.89,3.89,0,0,0,4,4.2,3.76,3.76,0,0,0,3.92-2.81H86.43a1.65,1.65,0,0,1-1.67,1.06,1.81,1.81,0,0,1-1.91-1.86h5.83Zm-4-2.37a1.71,1.71,0,0,1,1.83,1.66H82.87A1.71,1.71,0,0,1,84.68,9.78Z"/><path class="cls-7" d="M89.52,8.25v1.89h1.24V16.3H93V10.14h1.84V8.25H93V7.43c0-.57.15-1,1-1h.81V4.66H93.5c-2,0-2.74,1-2.74,2.55v1Z"/><path class="cls-7" d="M96.22,7h2.2l0-2.35h-2.2Zm0,9.29h2.17v-8H96.25Z"/></g></g></svg>