<?xml version="1.0" encoding="utf-8"?>
<!-- Generator: Adobe Illustrator 26.0.0, SVG Export Plug-In . SVG Version: 6.00 Build 0)  -->
<svg version="1.1" id="Layer_1" xmlns="http://www.w3.org/2000/svg" xmlns:xlink="http://www.w3.org/1999/xlink" x="0px" y="0px"
	 viewBox="0 0 187 42" style="enable-background:new 0 0 187 42;" xml:space="preserve">
<style type="text/css">
	.st0{fill-rule:evenodd;clip-rule:evenodd;}
</style>
<g>
	<g>
		<path class="st0" d="M10.4,17.9L23.3,31l12.8-13l10.5,10.7L34.4,41l-3.1-3.1l9.1-9.3l-4.3-4.4l-12.8,13L10.4,24.1l-4.2,4.3
			l9.3,9.4L12.3,41L0,28.5L10.4,17.9z"/>
		<path class="st0" d="M36.1,24.1L23.2,11L10.5,24L0,13.3L12.2,1l3.1,3.1l-9.1,9.3l4.3,4.4l12.8-13l12.9,13.1l4.2-4.3l-9.3-9.4
			L34.3,1l12.3,12.5L36.1,24.1z"/>
		<path class="st0" d="M21.3,40.7v-8.3h4.2v8.3H21.3z"/>
		<path class="st0" d="M21.3,9.6V1.3h4.2v8.3H21.3z"/>
	</g>
	<path d="M60.7,10.7h-4.2v21.1h4.2V10.7z"/>
	<path d="M82,16.3c-1.9,0-3.7,0.8-4.6,2.6c-0.9-1.8-2.7-2.6-4.8-2.6c-1.8,0-3.3,0.7-4,2l-0.4-1.7h-3.8v15.3h4.1v-8.5
		c0-2.3,1.2-3.3,2.9-3.3c1.6,0,2.8,1,2.8,3.5v8.4h4v-8.5C78.2,21,79.4,20,81,20c1.7,0,2.8,1,2.8,3.3v8.6h4.1v-9.4
		C87.9,18.3,85.1,16.3,82,16.3z"/>
	<path d="M108.9,16.3c-1.9,0-3.7,0.8-4.6,2.6c-0.9-1.8-2.7-2.6-4.8-2.6c-1.8,0-3.3,0.7-4,2L95,16.6h-3.8v15.3h4.1v-8.5
		c0-2.3,1.2-3.3,2.9-3.3c1.6,0,2.8,1,2.8,3.5v8.4h4v-8.5c0.1-2.4,1.3-3.4,2.9-3.4c1.7,0,2.8,1,2.8,3.3v8.6h4.1v-9.4
		C114.8,18.3,111.9,16.3,108.9,16.3z"/>
	<path d="M128,16.6V25c0,2.3-1.1,3.6-3.1,3.6c-1.9,0.1-3.2-1.1-3.2-3.5v-8.5h-3.9v9.1c0,3.9,2.3,6.5,6.2,6.5c1.8,0,3.1-0.8,3.9-2
		l0.2,1.7h3.8V16.6H128z"/>
	<path d="M144,16.3c-2.3,0-3.8,0.9-4.6,2.1l-0.2-1.8h-3.8v15.3h4.1v-8.1c0-2.5,1.2-4,3.3-4c2,0,3.2,1.3,3.2,3.8v8.2h4.1v-9.1
		C150.1,18.9,147.9,16.3,144,16.3z"/>
	<path d="M168.1,24c0-4.7-3-7.7-7.6-7.7s-7.6,3.2-7.6,7.9c0,4.8,3.1,8,7.6,8c3.8,0,6.8-2.1,7.4-5.3h-4.1c-0.5,1.3-1.7,2-3.2,2
		c-2,0-3.6-1.3-3.6-3.5h11L168.1,24z M160.5,19.5c1.8,0,3.3,1,3.5,3.1h-6.9C157.3,20.5,158.8,19.5,160.5,19.5z"/>
	<path d="M169.7,16.6v3.6h2.3v11.7h4.1V20.2h3.5v-3.6h-3.5v-1.6c0-1.1,0.3-1.9,2-1.9h1.5V9.8h-2.4c-3.8,0-5.2,1.9-5.2,4.8v2H169.7z"
		/>
	<path d="M182.4,14.3h4.2l0.1-4.5h-4.2L182.4,14.3z M182.5,31.9h4.1V16.6h-4.1V31.9z"/>
</g>
</svg>
